<svg xmlns="http://www.w3.org/2000/svg" enable-background="new 206 -116 1024 1024" viewBox="206 -116 1024 1024"><path d="M633.8 675.7c0-6.1 0-12.3 0-18.4 0-5.6-3.2-12.8-8.7-15.1-10.8-4.6-21.4-10-31.5-16-4.8-2.9-9.6-5.9-14.2-9.1-2.3-1.6-4.6-3.2-6.9-4.9-1.1-.8-2.2-1.7-3.4-2.5 3.5 2.6-1.4-1.1-2-1.6-9.1-7.3-17.7-15.3-25.7-23.7-3.9-4.1-7.6-8.3-11.2-12.6-1.8-2.2-3.5-4.3-5.3-6.5 2.6 3.3-.3-.4-.7-.9-1.1-1.5-2.2-3-3.3-4.5-6.8-9.5-13-19.6-18.5-29.9-2.6-5-5.1-10.1-7.4-15.3-.6-1.3-1.1-2.6-1.7-3.9 1.7 3.9-.2-.5-.4-1.1-1.2-3.1-2.4-6.2-3.5-9.3-3.9-10.9-7-22-9.4-33.2-1.2-5.7-2.2-11.5-3.1-17.3.7 4.4-.1-.5-.1-1.2-.2-1.5-.3-2.9-.5-4.4-.4-3.4-.6-6.9-.9-10.4-.7-12-.7-24.1.2-36.1.2-2.8.5-5.5.7-8.3.1-1.4.3-2.7.5-4.1.5-4.7-.6 3.8.1-.8.9-5.8 1.9-11.7 3.1-17.5 2.3-11 5.4-21.8 9.2-32.3.9-2.5 1.8-5 2.8-7.5.5-1.2 1-2.5 1.5-3.7 1.7-4.2-1.5 3.4.3-.7 2.3-5.3 4.7-10.5 7.3-15.6 5-9.8 10.6-19.2 16.8-28.2 1.5-2.2 3-4.3 4.5-6.4.8-1.1 1.6-2.1 2.3-3.2 2.6-3.6-2.3 2.9.5-.6 3.3-4.1 6.6-8.1 10.1-12.1 7.2-8.2 15-15.9 23.2-23.1 3.9-3.5 8-6.8 12.1-10-3.5 2.7 0 0 .6-.4 1.1-.8 2.1-1.6 3.2-2.3 2.5-1.8 5-3.5 7.5-5.2 9.1-6.1 18.6-11.6 28.4-16.6 4.7-2.4 9.6-4.6 14.4-6.7-4.2 1.8 0 0 .7-.3 1.2-.5 2.5-1 3.7-1.5 2.9-1.1 5.8-2.2 8.8-3.2 10.6-3.6 21.5-6.6 32.5-8.8 5.4-1.1 10.7-2 16.2-2.8-4.6.7 0 0 .8-.1 1.4-.2 2.7-.3 4.1-.4 3.2-.3 6.4-.6 9.7-.8 11.2-.7 22.4-.7 33.6 0 5.5.4 11 .9 16.5 1.6-4.7-.6 0 0 .8.1 1.4.2 2.7.4 4.1.6 3.1.5 6.3 1.1 9.4 1.7 11 2.2 21.9 5.2 32.5 8.8 5 1.7 10 3.7 15 5.7-4.2-1.7 0 0 .7.3 1.2.5 2.4 1.1 3.6 1.6 2.8 1.3 5.6 2.6 8.4 4 9.8 4.9 19.3 10.4 28.4 16.6 4.4 2.9 8.6 6 12.8 9.1-3.6-2.7 0 0 .6.5 1 .8 2 1.6 3.1 2.5 2.4 1.9 4.7 3.9 7 5.9 8.2 7.2 15.9 14.9 23.2 23.1 3.2 3.6 6.3 7.3 9.3 11 .5.6 3.2 4.2.5.6.8 1 1.6 2.1 2.4 3.1 1.8 2.5 3.6 5 5.3 7.5 6.2 9 11.8 18.5 16.8 28.2 2.4 4.7 4.7 9.5 6.8 14.3.3.7 2 4.9.3.7.5 1.2 1 2.5 1.5 3.7 1.1 2.9 2.2 5.8 3.3 8.7 3.7 10.6 6.8 21.4 9.2 32.3 1.1 5.3 2.1 10.7 2.9 16.1.1.8.7 5.4.1.8.2 1.4.3 2.7.5 4.1.4 3.2.7 6.4.9 9.6.9 12 1 24.1.2 36.1-.4 5.9-.9 11.8-1.7 17.7.6-4.4-.1.5-.2 1.2-.2 1.4-.5 2.9-.7 4.3-.6 3.4-1.2 6.7-1.9 10-2.4 11.3-5.5 22.4-9.4 33.3-1 2.7-2 5.4-3 8-.5 1.3-1.1 2.6-1.6 4 1.6-4-.2.5-.5 1.1-2.5 5.6-5.2 11.2-8 16.6-5.5 10.4-11.7 20.4-18.5 30-1.6 2.3-3.3 4.5-5 6.8 2.6-3.4-.3.4-.7.9-.9 1.1-1.8 2.2-2.7 3.3-3.9 4.7-7.9 9.2-12.1 13.6-8.1 8.5-16.7 16.4-25.8 23.7-1.1.9-2.2 1.8-3.3 2.6 3.3-2.6-.4.3-.9.7-2.3 1.7-4.5 3.3-6.9 4.9-5 3.5-10.1 6.8-15.4 9.9-9.7 5.8-19.9 10.9-30.3 15.4-5.5 2.4-8.7 9.5-8.7 15.1 0 6.3 0 12.5 0 18.8 0 9.2 8 17.9 17.5 17.5s17.5-7.7 17.5-17.5c0-6.3 0-12.5 0-18.8-2.9 5-5.8 10.1-8.7 15.1 46.6-20.2 86.6-53.6 116-95 30-42.3 47.1-93.1 50.1-144.7 2.8-49.3-8.1-98.9-30.6-142.7-21.6-42.2-54.6-78.2-94-104.5-40.5-27-88-42.4-136.4-45.5-49-3.1-98.3 7.3-142.1 29.3-42.4 21.2-78.7 53.8-105.4 93-27.4 40.2-43.2 87.5-46.7 135.8-3.9 51.9 7.6 104.5 31.9 150.4 23.5 44.4 59.6 82.1 102.6 107.9 10.3 6.2 21 11.6 32.1 16.4-2.9-5-5.8-10.1-8.7-15.1 0 6.1 0 12.3 0 18.4 0 9.2 8 17.9 17.5 17.5C625.8 692.8 633.8 685.6 633.8 675.7L633.8 675.7zM620.4 761.2c22 0 44 0 65.9 0 35.2 0 70.4 0 105.7 0 8 0 16.1 0 24.1 0 9.2 0 17.9-8 17.5-17.5s-7.7-17.5-17.5-17.5c-22 0-44 0-65.9 0-35.2 0-70.4 0-105.7 0-8 0-16.1 0-24.1 0-9.2 0-17.9 8-17.5 17.5C603.4 753.2 610.6 761.2 620.4 761.2L620.4 761.2zM662.4 830.5c32.6 0 65.3 0 97.9 0 4.6 0 9.3 0 13.9 0 9.2 0 17.9-8 17.5-17.5s-7.7-17.5-17.5-17.5c-32.6 0-65.3 0-97.9 0-4.6 0-9.3 0-13.9 0-9.2 0-17.9 8-17.5 17.5C645.3 822.5 652.6 830.5 662.4 830.5L662.4 830.5zM1061.9 433.5c27.1 0 54.3 0 81.4 0 3.9 0 7.8 0 11.7 0 9.2 0 17.9-8 17.5-17.5-.4-9.5-7.7-17.5-17.5-17.5-27.1 0-54.3 0-81.4 0-3.9 0-7.8 0-11.7 0-9.2 0-17.9 8-17.5 17.5C1044.9 425.5 1052.1 433.5 1061.9 433.5L1061.9 433.5zM281 433.5c27.1 0 54.3 0 81.4 0 3.9 0 7.8 0 11.7 0 9.2 0 17.9-8 17.5-17.5-.4-9.5-7.7-17.5-17.5-17.5-27.1 0-54.3 0-81.4 0-3.9 0-7.8 0-11.7 0-9.2 0-17.9 8-17.5 17.5C263.9 425.5 271.2 433.5 281 433.5L281 433.5zM735.5 72.1c0-27.1 0-54.3 0-81.4 0-3.9 0-7.8 0-11.7 0-9.2-8-17.9-17.5-17.5s-17.5 7.7-17.5 17.5c0 27.1 0 54.3 0 81.4 0 3.9 0 7.8 0 11.7 0 9.2 8 17.9 17.5 17.5C727.5 89.1 735.5 81.9 735.5 72.1L735.5 72.1zM484.2 157.5c-19.6-19.6-39.1-39.1-58.7-58.7-2.8-2.8-5.5-5.5-8.3-8.3-6.5-6.5-18.4-7-24.7 0-6.4 7-6.9 17.8 0 24.7 19.6 19.6 39.1 39.1 58.7 58.7 2.8 2.8 5.5 5.5 8.3 8.3 6.5 6.5 18.4 7 24.7 0C490.7 175.3 491.2 164.4 484.2 157.5L484.2 157.5zM976.5 182.2c19.6-19.6 39.1-39.1 58.7-58.7 2.8-2.8 5.5-5.5 8.3-8.3 6.5-6.5 7-18.4 0-24.7-7-6.4-17.8-6.9-24.7 0-19.6 19.6-39.1 39.1-58.7 58.7-2.8 2.8-5.5 5.5-8.3 8.3-6.5 6.5-7 18.4 0 24.7C958.7 188.7 969.6 189.2 976.5 182.2L976.5 182.2z"/><path d="M756.1,324.5c0,1.4,0.5,6.1-0.4,7.2c0.7-0.8,0.6-3.4,0.1-1c-0.1,0.6-0.2,1.2-0.3,1.9c-0.3,1.5-0.6,2.9-1,4.4
				c-0.6,2.5-1.4,5.1-2.2,7.5c-0.5,1.5-1.1,2.9-1.6,4.4c-0.7,1.9,0.4-1,0.5-1.1c-0.4,0.8-0.7,1.6-1.1,2.4
				c-2.5,5.3-5.7,10.1-8.9,14.9c1.6-2.5,0.6-0.7-0.5,0.6c-0.8,1-1.7,2-2.6,2.9c-1.6,1.7-4.2,5.3-6.5,6c0,0,2.8-1.9,1.1-0.9
				c-0.5,0.3-1,0.7-1.5,1.1c-1,0.7-2,1.3-3.1,1.9c-0.3,0.2-2.9,1.8-3.2,1.6c-0.1,0,4.2-1.5,0.9-0.4c-0.7,0.2-1.5,0.5-2.2,0.7
				c-1.1,0.3-2.2,0.6-3.4,0.9c-3.1,0.8,3.3,0,0.1,0c-1.2,0-2.3,0.1-3.5,0.1c-0.6,0-1.2-0.1-1.7-0.1c-2.1,0.1,3.7,0.9,0.7,0.1
				c-1.2-0.3-6-0.8-6.6-2c-0.1-0.2,3.2,1.7,1.5,0.6c-0.5-0.3-1.1-0.5-1.6-0.8c-1.4-0.8-2.8-1.6-4.1-2.5c-0.5-0.3-1-0.8-1.5-1.1
				c-1.8-1,1.1,0.9,1.1,0.9c-0.9-0.3-2.1-1.8-2.8-2.5c-2-1.9-4-3.9-5.8-6c-1.1-1.3-2.8-3.9-0.9-1.1c-0.7-1.1-1.6-2.2-2.3-3.3
				c-1.6-2.4-3.1-4.9-4.5-7.5c-0.7-1.4-1.5-2.8-2.1-4.2c-0.7-1.5-1.5-3.6-0.4-0.7c-1-2.7-2.1-5.4-2.9-8.1s-1.5-5.4-2.1-8.1
				c-0.2-1-0.9-2.8-0.6-3.7c0-0.1,0.3,3.7,0.2,1.6c0-0.8-0.2-1.6-0.2-2.4c-0.2-2.8-0.1-5.5,0-8.3c0.1-3.5-0.6,2.6,0-0.7
				c0.3-1.5,0.6-3.1,1-4.6c0.3-1.3,0.8-2.5,1.1-3.8c0.2-0.6,0.5-1.2,0.7-1.9c-0.9,3.4-0.7,1.5-0.2,0.6c1.3-2.5,2.6-5,4.1-7.4
				c0.3-0.5,0.8-1,1.1-1.6c-0.1,0.1-2.1,2.4-0.8,1c1-1.1,1.9-2.3,3-3.4c0.9-0.9,1.8-1.8,2.8-2.7c0.5-0.4,1-0.9,1.5-1.3
				c0.4-0.3,2.7-1.9,0.8-0.6c-1.9,1.3,1.4-0.9,2-1.2c1.1-0.7,2.2-1.4,3.4-2c1.3-0.7,2.7-1.4,4.1-2c-3.2,1.5-0.1,0.2,1.4-0.3
				c2.6-0.8,5.2-1.3,7.8-1.8c2-0.4-1.2,0.2-1.3,0.2c0.9,0,1.8-0.2,2.7-0.2c1.6-0.1,3.2-0.1,4.9,0c1.6,0.1,5.1,0.5,1.5-0.1
				c1.6,0.3,3.1,0.5,4.6,0.9c1.7,0.4,3.4,1,5.1,1.5c0.6,0.2,1.2,0.5,1.9,0.7c-1.2-0.3-2.5-1.2-0.6-0.2c2.8,1.4,5.3,2.9,7.9,4.5
				c0.7,0.4,2.6,2-0.4-0.4c0.7,0.5,1.3,1.1,2,1.7c1.1,1,2.2,2,3.3,3.1s2,2.2,3,3.4c0.3,0.4,1.4,2.1,0.2,0.3c-1.3-2,0.3,0.5,0.5,0.9
				c1.7,2.8,3.3,5.6,4.7,8.6c-1.5-3.2-0.2-0.1,0.3,1.4s0.9,3,1.2,4.5c0.2,0.9,0.3,1.8,0.5,2.6c0.4,2.2-0.1,0.7-0.1-0.6
				C755.9,320.8,756.1,322.7,756.1,324.5c0.1,9.1,8,17.9,17.5,17.5c9.4-0.4,17.6-7.7,17.5-17.5c-0.4-33-23.1-63.3-55.6-71
				c-32-7.6-67,7.3-82.1,36.9c-14.6,28.7-8.3,63,9.1,89.1c8.6,12.8,19.8,24.4,34.2,30.5c15.2,6.4,31,5.7,45.8-1.4
				c14.8-7.1,26.6-20.8,34.6-34.8c8.5-14.9,13.8-32.1,14-49.3c0.1-9.2-8.1-17.9-17.5-17.5C764.1,307.4,756.2,314.7,756.1,324.5z"/><path d="M812,483.6c0,14.8,0,29.6,0,44.4c5.8-5.8,11.7-11.7,17.5-17.5c-25.2,0-50.4,0-75.6,0c-39.9,0-79.8,0-119.8,0
				c-9.2,0-18.3,0-27.5,0c5.8,5.8,11.7,11.7,17.5,17.5c0-14,0-28,0-42c0-3.1,0.1-6.3,0.4-9.4c-0.4,3.6,0.1,0.1,0.4-1.4
				c0.4-1.5,0.8-3,1.3-4.5c0.2-0.7,2-5,1-2.9s0,0,0.2-0.3c0.5-1,1-2,1.5-2.9c0.7-1.3,1.5-2.6,2.4-3.9c0.4-0.5,0.8-1.1,1.1-1.6
				c1.2-2.1-2,2.1-0.3,0.4c2.3-2.3,4.5-4.8,6.9-7c0.3-0.3,2-1.7,0.3-0.3c-1.9,1.5,0.4-0.3,0.9-0.6c1.3-0.8,2.6-1.7,3.9-2.5
				c1.1-0.7,2.3-1.2,3.5-1.9c2.8-1.5,0-0.1-0.5,0.2c0.8-0.3,1.7-0.6,2.5-0.9c1.7-0.6,3.4-1.1,5.1-1.5c0.9-0.2,1.8-0.4,2.6-0.6
				c3.3-0.9-2.1,0.1,0.1-0.1c2.5-0.2,4.9-0.3,7.4-0.3c4.1,0,8.2,0,12.2,0c-4.1-1.7-8.2-3.4-12.4-5.1c13.7,17.1,27.4,34.2,41.2,51.4
				c5.5,6.8,19.3,6.8,24.7,0c13.6-17.1,27.2-34.2,40.8-51.4c-4.1,1.7-8.2,3.4-12.4,5.1c4.4,0,8.9,0,13.3,0c2.3,0,4.6,0.2,6.9,0.4
				c-4.5-0.5,2,0.6,3.4,0.9c2.2,0.6,4.2,1.3,6.3,2.1c-4.1-1.5-0.1,0.1,0.6,0.4c1,0.5,1.9,1,2.9,1.6c0.9,0.6,1.9,1.1,2.8,1.7
				c0.4,0.3,3.4,2.5,1.4,0.9s1.2,1.1,1.3,1.1c0.8,0.7,1.6,1.5,2.4,2.2c0.8,0.8,1.5,1.6,2.2,2.4c0.3,0.4,2.7,3.3,1.1,1.3
				c-1.6-2,0.9,1.3,0.9,1.4c0.6,0.9,1.2,1.8,1.7,2.8c0.6,0.9,1.1,1.9,1.6,2.9c0.2,0.5,1.9,3.9,0.8,1.5c-1.1-2.3,0.4,1.1,0.6,1.6
				c0.4,1.1,0.7,2.1,1,3.2c0.3,1.1,0.6,2.2,0.8,3.3c0.1,0.5,1,4.3,0.4,1.7s0.1,1.2,0.2,1.8C811.9,480.8,812,482.2,812,483.6
				c0.1,9.1,8,17.9,17.5,17.5c9.4-0.4,17.6-7.7,17.5-17.5c-0.5-41.3-34.1-74.4-75.4-74.6c-6.8,0-15.3-1.1-21.4,2.4
				c-3.2,1.8-4.9,4.4-7.1,7.2c-7,8.7-13.9,17.5-20.9,26.2c-5.5,6.9-10.9,13.8-16.4,20.7c8.2,0,16.5,0,24.7,0
				c-7.2-8.9-14.3-17.9-21.5-26.8c-4.7-5.9-9.5-11.8-14.2-17.8c-5-6.3-8.4-11.3-17.8-11.9c-22-1.4-43.1,3.2-60.7,17.1
				c-18.3,14.4-27.2,37-27.2,59.9c0,14,0,28,0,42c0,9.5,8,17.5,17.5,17.5c25.2,0,50.4,0,75.6,0c39.9,0,79.8,0,119.8,0
				c9.2,0,18.3,0,27.5,0c9.5,0,17.5-8,17.5-17.5c0-14.8,0-29.6,0-44.4c0-9.2-8-17.9-17.5-17.5C820,466.6,812,473.8,812,483.6z"/></svg>